<svg width="609" height="697" viewBox="0 0 609 697" fill="none" xmlns="http://www.w3.org/2000/svg">
<path d="M522.116 392.591C522.116 265.289 416.429 162.091 286.058 162.091C155.687 162.091 50 265.289 50 392.591C50 519.892 155.687 623.09 286.058 623.09C416.429 623.09 522.116 519.892 522.116 392.591Z" fill="#7B4AE2" fill-opacity="0.2"/>
<g filter="url(#filter0_d_151_58)">
<ellipse cx="526.215" cy="171.095" rx="32.7858" ry="15.3771" fill="#090E16"/>
</g>
<g clip-path="url(#clip0_151_58)">
<path fill-rule="evenodd" clip-rule="evenodd" d="M540.047 395.715H512.384C510.969 395.715 509.822 396.835 509.822 398.218V425.247C509.822 426.629 510.969 427.749 512.384 427.749H540.047C541.461 427.749 542.608 426.629 542.608 425.247V398.218C542.608 396.835 541.461 395.715 540.047 395.715ZM529.099 424.258V420.801C529.741 421.327 530.438 421.721 531.19 421.984C531.942 422.247 532.702 422.378 533.469 422.378C533.919 422.378 534.312 422.339 534.647 422.259C534.983 422.18 535.263 422.07 535.488 421.93C535.713 421.79 535.881 421.624 535.991 421.433C536.102 421.242 536.157 421.035 536.157 420.812C536.157 420.51 536.069 420.24 535.892 420.002C535.715 419.764 535.473 419.545 535.167 419.343C534.861 419.142 534.498 418.947 534.077 418.76C533.657 418.573 533.203 418.382 532.717 418.188C531.478 417.684 530.554 417.068 529.945 416.341C529.337 415.613 529.033 414.735 529.033 413.705C529.033 412.899 529.199 412.206 529.531 411.626C529.862 411.047 530.314 410.57 530.886 410.195C531.457 409.821 532.119 409.545 532.872 409.369C533.624 409.193 534.42 409.104 535.261 409.104C536.087 409.104 536.819 409.153 537.457 409.25C538.095 409.347 538.683 409.497 539.222 409.698V412.928C538.956 412.748 538.667 412.589 538.353 412.453C538.04 412.316 537.717 412.202 537.385 412.112C537.053 412.022 536.723 411.956 536.395 411.912C536.067 411.869 535.755 411.848 535.46 411.848C535.055 411.848 534.686 411.885 534.354 411.961C534.022 412.037 533.742 412.143 533.513 412.28C533.285 412.417 533.108 412.58 532.982 412.771C532.857 412.962 532.794 413.176 532.794 413.414C532.794 413.673 532.864 413.905 533.004 414.11C533.144 414.316 533.344 414.51 533.602 414.694C533.86 414.877 534.173 415.057 534.542 415.234C534.911 415.41 535.327 415.592 535.792 415.779C536.426 416.038 536.996 416.314 537.501 416.605C538.007 416.897 538.44 417.226 538.801 417.594C539.163 417.961 539.439 418.38 539.631 418.852C539.823 419.323 539.919 419.873 539.919 420.499C539.919 421.363 539.751 422.088 539.415 422.675C539.08 423.262 538.624 423.737 538.049 424.101C537.474 424.465 536.804 424.726 536.041 424.884C535.278 425.042 534.472 425.122 533.624 425.122C532.754 425.122 531.926 425.05 531.14 424.906C530.355 424.762 529.674 424.546 529.099 424.258ZM527.752 412.2H523.203V424.871H519.6V412.2H515.073V409.355H527.752V412.2Z" fill="#7B4AE2" fill-opacity="0.5"/>
</g>
<g filter="url(#filter1_d_151_58)">
<ellipse cx="82.7858" cy="131.884" rx="32.7858" ry="15.3771" fill="#090E16"/>
</g>
<path d="M95.0518 324.409C94.6696 324.281 94.2734 324.159 93.8656 324.044C93.9326 323.777 93.9941 323.513 94.0489 323.254C94.9468 318.995 94.3597 315.564 92.3549 314.434C90.4325 313.351 87.2886 314.48 84.1134 317.18C83.8081 317.44 83.5019 317.715 83.1959 318.003C82.9919 317.812 82.7883 317.628 82.5853 317.452C79.2576 314.565 75.9221 313.348 73.9192 314.481C71.9987 315.567 71.4299 318.793 72.2382 322.829C72.3163 323.219 72.4075 323.617 72.5107 324.022C72.0386 324.153 71.5829 324.292 71.1468 324.441C67.2455 325.77 64.7539 327.853 64.7539 330.013C64.7539 332.245 67.4286 334.483 71.4922 335.84C71.8129 335.947 72.1456 336.048 72.4885 336.144C72.3772 336.582 72.2804 337.011 72.1991 337.43C71.4284 341.396 72.0303 344.545 73.9457 345.625C75.9242 346.739 79.2446 345.593 82.4778 342.832C82.7334 342.614 82.9898 342.382 83.2467 342.14C83.5798 342.453 83.9122 342.749 84.243 343.028C87.3747 345.661 90.4679 346.724 92.3815 345.642C94.358 344.524 95.0003 341.141 94.1664 337.025C94.1027 336.71 94.0286 336.389 93.9453 336.062C94.1785 335.995 94.4074 335.925 94.6307 335.853C98.8551 334.485 101.604 332.275 101.604 330.013C101.604 327.845 99.0318 325.748 95.0518 324.409ZM94.1356 334.393C93.9341 334.458 93.7273 334.521 93.5166 334.582C93.0503 333.14 92.4209 331.606 91.6506 330.021C92.3856 328.474 92.9907 326.959 93.444 325.526C93.821 325.633 94.1869 325.745 94.5394 325.864C97.9494 327.011 100.029 328.707 100.029 330.013C100.029 331.405 97.7831 333.212 94.1356 334.393ZM92.6221 337.323C92.9909 339.143 93.0435 340.789 92.7993 342.075C92.5798 343.231 92.1384 344.002 91.5927 344.311C90.4314 344.967 87.9479 344.114 85.2696 341.862C84.9626 341.603 84.6533 341.328 84.3431 341.036C85.3814 339.927 86.4191 338.637 87.4319 337.204C89.2133 337.05 90.8964 336.797 92.4226 336.452C92.4978 336.749 92.5646 337.039 92.6221 337.323ZM77.3168 344.197C76.1822 344.589 75.2786 344.6 74.7323 344.292C73.5699 343.637 73.0867 341.108 73.7459 337.717C73.8214 337.328 73.9112 336.929 74.0148 336.521C75.5243 336.847 77.195 337.082 78.9807 337.223C80.0003 338.625 81.068 339.914 82.144 341.042C81.9089 341.264 81.6748 341.475 81.4419 341.674C80.0122 342.895 78.5795 343.761 77.3168 344.197ZM72.0013 334.384C70.2045 333.784 68.7206 333.005 67.7035 332.153C66.7895 331.389 66.3281 330.629 66.3281 330.013C66.3281 328.702 68.3285 327.03 71.665 325.893C72.0699 325.755 72.4936 325.625 72.9334 325.503C73.3946 326.969 73.9994 328.501 74.7294 330.051C73.99 331.623 73.3765 333.18 72.9109 334.663C72.5973 334.575 72.2936 334.482 72.0013 334.384ZM73.7831 322.534C73.0906 319.076 73.5505 316.467 74.7079 315.812C75.9407 315.115 78.6668 316.109 81.54 318.602C81.7236 318.761 81.908 318.928 82.0929 319.101C81.0223 320.224 79.9643 321.503 78.9537 322.896C77.2207 323.053 75.5617 323.305 74.0364 323.643C73.9405 323.266 73.8556 322.896 73.7831 322.534ZM89.6785 326.369C89.3138 325.753 88.9395 325.153 88.5579 324.568C89.7336 324.713 90.8601 324.906 91.918 325.142C91.6004 326.137 91.2045 327.176 90.7385 328.242C90.4043 327.622 90.0508 326.997 89.6785 326.369ZM83.1964 320.2C83.9225 320.968 84.6496 321.827 85.3648 322.758C84.6441 322.724 83.9145 322.707 83.1788 322.707C82.4501 322.707 81.7258 322.724 81.0095 322.757C81.7255 321.834 82.4589 320.977 83.1964 320.2ZM76.6728 326.379C76.3085 326.997 75.9616 327.618 75.6326 328.241C75.1741 327.179 74.782 326.134 74.4616 325.126C75.513 324.896 76.6341 324.708 77.8024 324.565C77.4154 325.155 77.038 325.761 76.6728 326.379V326.379ZM77.8361 335.571C76.629 335.439 75.491 335.261 74.4399 335.038C74.7654 334.011 75.1662 332.944 75.6343 331.859C75.9642 332.481 76.3125 333.103 76.679 333.722H76.6791C77.0524 334.352 77.4391 334.969 77.8361 335.571ZM83.2399 339.935C82.4938 339.149 81.7496 338.279 81.0228 337.343C81.7284 337.37 82.4477 337.384 83.1788 337.384C83.9299 337.384 84.6724 337.367 85.4032 337.335C84.6856 338.288 83.9611 339.159 83.2399 339.935ZM90.7536 331.804C91.2461 332.9 91.6613 333.962 91.991 334.971C90.9225 335.209 89.769 335.401 88.5535 335.543C88.9361 334.951 89.3137 334.34 89.6847 333.711C90.0601 333.075 90.4166 332.438 90.7536 331.804ZM88.3212 332.943C87.7451 333.919 87.1537 334.85 86.5534 335.73C85.4599 335.806 84.3302 335.845 83.1788 335.845C82.032 335.845 80.9166 335.811 79.8425 335.743C79.2179 334.852 78.6137 333.917 78.0413 332.951H78.0414C77.4706 331.988 76.9452 331.016 76.4691 330.05C76.9451 329.082 77.4691 328.109 78.0366 327.148L78.0365 327.148C78.6056 326.184 79.2045 325.254 79.8233 324.368C80.9192 324.288 82.043 324.245 83.1787 324.245H83.1788C84.3196 324.245 85.4449 324.288 86.5405 324.37C87.1498 325.248 87.7447 326.175 88.316 327.14C88.8938 328.115 89.4245 329.081 89.9045 330.028C89.426 330.992 88.8964 331.968 88.3212 332.943ZM91.5686 315.767C92.8025 316.462 93.2824 319.266 92.5071 322.943C92.4577 323.178 92.402 323.417 92.3415 323.659C90.8127 323.314 89.1525 323.058 87.4144 322.898C86.4019 321.49 85.3526 320.209 84.2994 319.1C84.5825 318.834 84.8653 318.58 85.1469 318.34C87.8674 316.027 90.4101 315.114 91.5686 315.767ZM83.1788 326.798C84.9961 326.798 86.4694 328.238 86.4694 330.013C86.4694 331.789 84.9961 333.228 83.1788 333.228C81.3615 333.228 79.8882 331.789 79.8882 330.013C79.8882 328.238 81.3615 326.798 83.1788 326.798Z" fill="#7B4AE2" fill-opacity="0.5"/>
<g filter="url(#filter2_d_151_58)">
<ellipse cx="82.7858" cy="230.297" rx="32.7858" ry="15.3771" fill="#090E16"/>
</g>
<g clip-path="url(#clip1_151_58)">
<path fill-rule="evenodd" clip-rule="evenodd" d="M77.3647 222.609C74.3484 222.609 71.9004 223.757 71.9004 225.172C71.9004 226.586 74.3484 227.735 77.3647 227.735C74.3484 227.735 71.9004 228.883 71.9004 230.297C71.9004 231.712 74.3484 232.86 77.3647 232.86C74.3484 232.86 71.9004 234.008 71.9004 235.423C71.9004 236.838 74.3484 237.986 77.3647 237.986C80.381 237.986 82.829 236.838 82.829 235.423L82.829 230.297C82.829 231.712 85.277 232.86 88.2933 232.86C91.3096 232.86 93.7576 231.712 93.7576 230.297C93.7576 228.883 91.3096 227.735 88.2933 227.735C91.3096 227.735 93.7576 226.586 93.7576 225.172C93.7576 223.757 91.3096 222.609 88.2933 222.609H77.3647ZM88.2933 227.735H82.829L82.829 230.297C82.829 228.883 85.277 227.735 88.2933 227.735Z" fill="#7B4AE2" fill-opacity="0.5"/>
</g>
<g filter="url(#filter3_f_151_58)">
<ellipse cx="287.698" cy="159.947" rx="233.599" ry="109.562" fill="#7B4AE2" fill-opacity="0.2"/>
</g>
<g filter="url(#filter4_i_151_58)">
<path fill-rule="evenodd" clip-rule="evenodd" d="M244.679 477.352C278.33 494.878 316.066 492.931 345.632 477.351V515.745L345.966 515.736V538.279H244.679V477.352Z" fill="#BB7D52"/>
<path fill-rule="evenodd" clip-rule="evenodd" d="M244.678 509.343C278.329 526.87 316.066 524.923 345.632 509.343V533.827L368.368 533.273L368.65 533.284C368.65 592.299 224.254 601.133 224.254 533.195L224.817 533.17L244.678 533.269V509.343V509.343Z" fill="#D08B5B"/>
<path fill-rule="evenodd" clip-rule="evenodd" d="M185.564 266.801C265.87 216.841 368.608 234.607 403.319 267.552C413.355 291.148 414.064 313.907 411.111 338.337C417.891 333.583 425.953 334.671 432.305 339.098C434.878 359.37 441.772 399.471 410.882 401.211C400.247 530.571 205.388 546.673 179.048 401.634C148.432 400.603 156.688 360.074 158.601 340.611C165.946 335.152 174.334 337.9 179.54 340.342L185.564 266.801V266.801Z" fill="#D08B5B"/>
<path fill-rule="evenodd" clip-rule="evenodd" d="M173.635 321.584C174.057 322.717 172.686 323.849 168.574 325.908C160.064 330.062 159.317 330.925 159.296 337.431V337.746C159.296 346.495 160.667 348.759 166.571 349.583C172.581 350.407 176.377 351.744 177.432 353.391C177.853 354.112 178.275 357.406 178.275 360.803C178.275 368.111 180.594 378.405 183.442 383.757C191.455 398.992 212.331 406.712 237.636 403.83C250.078 402.286 257.353 399.919 265.261 394.771C277.07 387.052 282.553 377.17 283.396 361.627C284.029 352.156 284.029 352.156 287.192 351.126C291.304 349.686 301.532 349.686 305.75 351.126C309.017 352.259 309.017 352.259 309.017 359.568C309.017 368.008 311.232 378.096 314.184 383.758C322.197 398.992 343.074 406.712 368.273 403.83C380.821 402.286 388.096 399.919 396.004 394.773C407.812 387.053 413.296 376.862 414.35 360.906C415.088 350.407 414.561 350.922 426.159 349.48C432.063 348.76 433.434 346.495 433.434 337.643C433.434 330.643 432.274 329.305 422.469 325.188L416.563 322.717L407.39 319.939L400.643 318.497C396.953 317.777 392.208 317.158 390.204 317.055C388.096 317.055 382.824 315.203 377.552 312.63C368.8 308.409 368.379 308.306 358.046 308.306C346.237 308.306 337.908 310.674 331.159 315.821C329.156 317.364 324.938 319.32 321.986 320.041C318.928 320.762 313.235 322.718 309.334 324.364C299.106 328.585 293.835 328.379 280.761 323.232C275.067 320.968 269.689 319.114 268.952 319.114C268.213 319.114 265.788 317.674 263.574 315.924C256.615 310.571 248.812 308.306 236.793 308.306C226.565 308.306 225.933 308.512 216.865 312.733C210.75 315.615 206.005 317.055 203.158 317.055C200.838 317.158 195.777 317.777 191.981 318.6L173.635 321.584V321.584ZM257.985 334.863C270.637 338.878 274.538 344.333 274.644 358.126C274.749 365.435 274.328 367.803 272.325 371.817C265.366 385.713 245.544 393.537 222.031 391.787C204.001 390.346 194.723 385.405 189.767 374.494C186.604 367.391 186.183 350.407 189.134 345.157C191.876 340.215 197.148 336.819 205.793 334.554C212.542 332.805 216.232 332.599 233.102 332.805C247.652 333.113 253.979 333.628 257.985 334.863V334.863ZM388.727 334.863C401.381 338.878 405.281 344.333 405.387 358.126C405.493 365.435 405.07 367.803 403.067 371.817C396.108 385.713 376.285 393.537 352.773 391.787C334.744 390.346 325.465 385.405 320.509 374.494C317.346 367.391 316.925 350.407 319.877 345.157C322.618 340.215 327.89 336.819 336.536 334.554C343.284 332.805 346.974 332.599 363.844 332.805C378.395 333.113 384.721 333.628 388.727 334.863V334.863Z" fill="#A66F49"/>
<path fill-rule="evenodd" clip-rule="evenodd" d="M268.107 166.184L261.465 170.405L258.09 167.214C252.818 162.17 250.288 163.097 246.281 171.434C243.856 176.581 240.799 177.199 235.527 173.802C233.418 172.361 230.782 171.125 229.728 171.125C227.409 171.125 225.194 174.625 224.245 179.257C223.507 183.066 220.977 186.566 218.868 186.566C218.13 186.566 215.388 185.639 212.753 184.507C208.746 182.757 207.48 182.654 205.266 183.58C202.736 184.713 202.525 185.33 202.525 192.124C202.525 197.065 201.787 200.874 200.416 203.756C198.413 208.079 198.307 208.182 193.352 208.182C185.128 208.182 181.227 212.197 185.233 216.623C187.342 218.785 185.971 221.049 181.859 221.976C174.268 223.829 172.054 228.564 176.166 233.607C179.013 237.21 178.907 237.725 174.373 239.784C169.629 242.048 168.891 244.622 171.948 247.813C174.268 250.283 174.268 250.386 173.002 263.974C171.738 277.15 172.159 313.898 173.635 317.706C174.057 318.839 172.686 319.971 168.574 322.03C159.928 326.25 159.296 327.074 159.296 333.868C159.296 342.617 160.667 344.882 166.571 345.705C172.581 346.529 176.377 347.866 177.432 349.514C177.853 350.234 178.275 353.528 178.275 356.925C178.275 364.234 180.594 374.527 183.441 379.88C191.454 395.115 212.331 402.834 237.636 399.953C250.078 398.408 257.353 396.041 265.261 390.894C277.07 383.174 282.553 373.292 283.396 357.749C284.029 348.278 284.029 348.278 287.192 347.25C291.304 345.808 301.531 345.808 305.749 347.25C309.018 348.382 309.018 348.382 309.018 355.69C309.018 364.131 311.232 374.219 314.184 379.88C322.197 395.115 343.074 402.835 368.273 399.953C380.821 398.409 388.096 396.042 396.004 390.895C407.813 383.175 413.296 372.984 414.35 357.029C415.088 346.529 414.561 347.044 426.159 345.603C432.064 344.882 433.434 342.617 433.434 333.765C433.434 326.766 432.274 325.427 422.469 321.31L416.564 318.839V308.546C416.458 290.944 413.928 278.489 409.499 274.474C408.023 273.136 404.755 271.077 402.119 269.842C398.007 267.886 397.164 267.783 395.898 269.122C394.633 270.357 394.949 271.489 398.112 277.665C402.014 285.283 405.493 298.15 406.652 309.267L407.391 316.061L400.643 314.619C396.952 313.899 392.208 313.281 390.204 313.178C388.096 313.178 382.824 311.326 377.552 308.752C368.8 304.532 368.379 304.429 358.046 304.429C346.237 304.429 337.907 306.797 331.16 311.943C329.156 313.487 324.938 315.443 321.986 316.164C318.929 316.884 313.235 318.84 309.334 320.487C299.106 324.708 293.835 324.502 280.76 319.354C275.067 317.09 269.689 315.237 268.951 315.237C268.213 315.237 265.788 313.796 263.574 312.046C256.615 306.694 248.812 304.429 236.793 304.429C226.565 304.429 225.932 304.635 216.865 308.855C210.749 311.737 206.005 313.178 203.158 313.178C200.838 313.281 195.777 313.899 191.982 314.722C181.227 316.987 182.07 318.325 182.914 301.032C183.547 286.209 185.55 273.651 187.87 269.328C190.506 264.489 211.382 254.093 232.048 247.299C257.67 238.962 286.454 235.77 318.929 237.932C346.764 239.682 354.145 241.946 384.933 258.107C395.687 263.769 405.704 268.298 408.023 268.607C411.819 269.122 412.135 268.916 413.295 265.827C415.826 258.725 413.822 240.814 409.605 232.682C406.442 226.712 406.231 224.447 408.023 218.271C409.288 213.948 409.288 213.021 407.707 210.757C406.231 208.595 405.176 208.184 400.959 208.184C398.218 208.287 394 208.698 391.575 209.11C387.252 209.933 387.147 209.933 387.674 207.257C389.783 197.17 387.252 194.905 377.024 197.478C373.756 198.301 370.698 198.816 370.487 198.507C370.172 198.199 370.487 195.111 371.226 191.714C372.49 186.155 372.385 185.229 370.909 183.685C369.328 182.244 368.379 182.244 362.263 183.376C352.458 185.332 348.767 184.406 345.182 179.052C341.492 173.803 338.118 171.95 334.639 173.288C332.741 174.008 330.738 173.7 326.942 172.053C322.935 170.406 320.615 169.994 317.031 170.509C313.34 171.127 311.337 170.715 307.858 168.965C304.273 167.215 302.269 166.906 297.946 167.42C293.307 167.935 291.62 167.523 286.243 164.95C282.869 163.303 278.862 161.965 277.386 161.862C275.91 161.862 271.798 163.818 268.108 166.186L268.107 166.184V166.184ZM257.985 330.985C270.638 335 274.539 340.456 274.644 354.249C274.75 361.557 274.328 363.925 272.325 367.939C265.366 381.836 245.544 389.659 222.031 387.909C204.001 386.468 194.723 381.527 189.767 370.616C186.604 363.513 186.182 346.529 189.134 341.279C191.876 336.338 197.148 332.941 205.793 330.676C212.542 328.927 216.232 328.721 233.102 328.927C247.652 329.236 253.978 329.75 257.985 330.985V330.985ZM388.727 330.985C401.38 335 405.281 340.456 405.387 354.249C405.492 361.557 405.07 363.925 403.067 367.939C396.108 381.836 376.286 389.659 352.773 387.909C334.744 386.468 325.465 381.527 320.51 370.616C317.346 363.513 316.924 346.529 319.877 341.279C322.618 336.338 327.89 332.941 336.536 330.676C343.284 328.927 346.974 328.721 363.844 328.927C378.395 329.236 384.721 329.75 388.727 330.985V330.985Z" fill="#2C1B18"/>
<path fill-rule="evenodd" clip-rule="evenodd" d="M224.035 343.441C218.447 346.014 212.015 352.499 212.015 355.587C212.015 357.954 213.702 357.954 216.971 355.381C225.511 348.793 243.646 348.793 252.925 355.278C254.717 356.411 256.615 357.439 257.248 357.439C259.462 357.439 258.408 353.734 255.034 349.822C250.605 344.469 242.698 340.97 235.211 340.97C231.31 340.97 227.62 341.793 224.035 343.44V343.441V343.441Z" fill="#533824"/>
<path fill-rule="evenodd" clip-rule="evenodd" d="M346.341 343.441C340.753 346.014 334.321 352.499 334.321 355.587C334.321 357.954 336.008 357.954 339.277 355.381C347.817 348.793 365.953 348.793 375.231 355.278C377.023 356.411 378.922 357.439 379.555 357.439C381.769 357.439 380.714 353.734 377.34 349.822C372.912 344.469 365.004 340.97 357.518 340.97C353.617 340.97 349.926 341.793 346.342 343.44L346.341 343.441V343.441Z" fill="#533824"/>
<path fill-rule="evenodd" clip-rule="evenodd" d="M271.797 392.645C272.957 397.071 276.331 400.571 282.235 403.35C286.98 405.615 289.405 406.13 296.364 406.13C303.323 406.13 305.748 405.615 310.493 403.35C316.397 400.571 319.771 397.071 320.931 392.645L321.458 390.38H296.364H271.27L271.797 392.645V392.645Z" fill="#AF754C"/>
<path fill-rule="evenodd" clip-rule="evenodd" d="M173.635 317.706C174.057 318.838 172.686 319.971 168.574 322.03C160.064 326.183 159.317 327.047 159.296 333.553V333.868C159.296 342.617 160.667 344.881 166.571 345.705C172.581 346.528 176.377 347.866 177.432 349.513C177.853 350.234 178.275 353.528 178.275 356.924C178.275 364.233 180.594 374.527 183.442 379.879C191.455 395.114 212.331 402.834 237.636 399.952C250.078 398.407 257.353 396.041 265.261 390.893C277.07 383.174 282.553 373.292 283.396 357.749C284.029 348.278 284.029 348.278 287.192 347.249C291.304 345.808 301.532 345.808 305.75 347.249C309.017 348.381 309.017 348.381 309.017 355.69C309.017 364.13 311.232 374.218 314.184 379.881C322.197 395.114 343.074 402.834 368.273 399.952C380.821 398.408 388.096 396.041 396.004 390.895C407.812 383.175 413.296 372.984 414.35 357.028C415.088 346.528 414.561 347.044 426.159 345.602C432.063 344.882 433.434 342.617 433.434 333.764C433.434 326.765 432.274 325.428 422.469 321.31L416.563 318.838L407.39 316.061L400.643 314.619C396.953 313.899 392.208 313.28 390.204 313.177C388.096 313.177 382.824 311.325 377.552 308.752C368.8 304.531 368.379 304.428 358.046 304.428C346.237 304.428 337.908 306.796 331.159 311.943C329.156 313.486 324.938 315.442 321.986 316.163C318.928 316.884 313.235 318.84 309.334 320.486C299.106 324.707 293.835 324.501 280.761 319.354C275.067 317.09 269.689 315.236 268.952 315.236C268.213 315.236 265.788 313.796 263.574 312.046C256.615 306.693 248.812 304.428 236.793 304.428C226.565 304.428 225.933 304.634 216.865 308.855C210.75 311.737 206.005 313.177 203.158 313.177C200.838 313.28 195.777 313.899 191.981 314.722L173.635 317.706V317.706ZM257.985 330.986C270.637 335 274.538 340.455 274.644 354.249C274.749 361.557 274.328 363.925 272.325 367.939C265.366 381.835 245.544 389.659 222.031 387.908C204.001 386.468 194.723 381.527 189.767 370.616C186.604 363.513 186.183 346.528 189.134 341.279C191.876 336.337 197.148 332.941 205.793 330.677C212.542 328.927 216.232 328.721 233.102 328.927C247.652 329.234 253.979 329.75 257.985 330.986V330.986ZM388.727 330.986C401.381 335 405.281 340.455 405.387 354.249C405.493 361.557 405.07 363.925 403.067 367.939C396.108 381.835 376.285 389.659 352.773 387.908C334.744 386.468 325.465 381.527 320.509 370.616C317.346 363.513 316.925 346.528 319.877 341.279C322.618 336.337 327.89 332.941 336.536 330.677C343.284 328.927 346.974 328.721 363.844 328.927C378.395 329.234 384.721 329.75 388.727 330.986V330.986Z" fill="#090E16"/>
<path fill-rule="evenodd" clip-rule="evenodd" d="M266.948 434.024C268.319 442.568 274.961 451.318 283.186 455.435C289.195 458.523 300.266 459.141 306.593 456.774C316.083 453.171 324.307 443.495 325.783 434.024H266.948V434.024Z" fill="#FADECC"/>
<path d="M333.566 632.592L340.337 627.218C341.906 625.973 344.213 626.205 345.488 627.737C346.764 629.268 346.526 631.52 344.957 632.765L341.68 635.366L365.47 654.935C367.039 656.181 367.277 658.432 366.001 659.964C365.278 660.833 364.222 661.283 363.158 661.283C362.347 661.283 361.529 661.021 360.851 660.482L333.566 638.139C332.712 637.46 332.215 636.442 332.215 635.366C332.215 634.29 332.712 633.271 333.566 632.592V632.592Z" fill="#7B4AE2"/>
<path d="M363.633 599.754C365.576 599.769 367.14 601.32 367.125 603.218L366.822 657.874C366.806 659.772 365.217 661.298 363.274 661.283C362.781 661.28 362.314 661.177 361.889 660.996C360.64 660.461 359.77 659.237 359.781 657.819L360.085 603.164C360.1 601.265 361.688 599.739 363.633 599.754V599.754Z" fill="#7B4AE2"/>
<path d="M379.084 637.351L381.584 635.366L372.678 628.296C371.109 627.05 370.871 624.799 372.147 623.267C373.422 621.736 375.728 621.503 377.298 622.749L389.697 632.592C390.553 633.271 391.049 634.29 391.049 635.366C391.049 636.442 390.553 637.46 389.697 638.139L383.703 642.898C383.024 643.436 382.207 643.699 381.396 643.699C380.331 643.699 379.276 643.248 378.553 642.379C377.277 640.848 377.515 638.596 379.084 637.351V637.351Z" fill="#C83267"/>
<path fill-rule="evenodd" clip-rule="evenodd" d="M223.612 533.231C192.509 536.189 164.252 547.508 140.739 566.372C120.506 582.536 114.862 595.383 100.049 613.679C130.23 644.249 170.815 670.151 215.073 684.457C244.595 693.94 264.734 696.999 296.365 696.999C327.997 696.999 348.135 693.94 377.658 684.457C422.307 670.517 459.917 647.672 493.82 614.883C470.6 585.622 461.042 566.444 423.628 548.425C407.917 540.777 389.466 535.271 375.337 533.843L368.683 533.258L368.367 533.251L367.641 538.126C364.478 561.376 334.64 578.507 297.419 578.507C260.201 578.507 230.889 561.579 227.092 538.024C226.355 533.334 226.038 532.925 223.614 533.231H223.612V533.231Z" fill="#090E16"/>
<path d="M358.074 616.84L361.598 614.042C362.415 613.394 363.615 613.515 364.279 614.312C364.944 615.109 364.82 616.282 364.003 616.93L362.297 618.284L374.681 628.473C375.498 629.121 375.622 630.293 374.957 631.09C374.581 631.543 374.031 631.778 373.478 631.778C373.055 631.778 372.63 631.641 372.276 631.361L358.074 619.728C357.629 619.375 357.37 618.844 357.37 618.284C357.37 617.724 357.629 617.194 358.074 616.84V616.84Z" fill="white"/>
<path d="M373.725 599.743C374.736 599.751 375.55 600.558 375.542 601.547L375.385 630.003C375.377 630.991 374.549 631.785 373.538 631.777C373.281 631.776 373.038 631.722 372.817 631.628C372.167 631.349 371.714 630.712 371.72 629.974L371.878 601.518C371.886 600.53 372.713 599.735 373.725 599.743V599.743Z" fill="white"/>
<path d="M381.768 619.318L383.069 618.285L378.433 614.604C377.616 613.956 377.493 612.783 378.157 611.986C378.821 611.188 380.021 611.068 380.838 611.716L387.292 616.841C387.738 617.195 387.996 617.725 387.996 618.285C387.996 618.845 387.738 619.375 387.292 619.729L384.172 622.206C383.819 622.487 383.394 622.623 382.971 622.623C382.417 622.623 381.868 622.389 381.491 621.936C380.827 621.139 380.951 619.967 381.768 619.318Z" fill="#7B4AE2"/>
</g>
<defs>
<filter id="filter0_d_151_58" x="443.429" y="109.718" width="165.571" height="130.754" filterUnits="userSpaceOnUse" color-interpolation-filters="sRGB">
<feFlood flood-opacity="0" result="BackgroundImageFix"/>
<feColorMatrix in="SourceAlpha" type="matrix" values="0 0 0 0 0 0 0 0 0 0 0 0 0 0 0 0 0 0 127 0" result="hardAlpha"/>
<feOffset dy="4"/>
<feGaussianBlur stdDeviation="25"/>
<feComposite in2="hardAlpha" operator="out"/>
<feColorMatrix type="matrix" values="0 0 0 0 0 0 0 0 0 0 0 0 0 0 0 0 0 0 0.5 0"/>
<feBlend mode="normal" in2="BackgroundImageFix" result="effect1_dropShadow_151_58"/>
<feBlend mode="normal" in="SourceGraphic" in2="effect1_dropShadow_151_58" result="shape"/>
</filter>
<filter id="filter1_d_151_58" x="0" y="70.5073" width="165.571" height="130.754" filterUnits="userSpaceOnUse" color-interpolation-filters="sRGB">
<feFlood flood-opacity="0" result="BackgroundImageFix"/>
<feColorMatrix in="SourceAlpha" type="matrix" values="0 0 0 0 0 0 0 0 0 0 0 0 0 0 0 0 0 0 127 0" result="hardAlpha"/>
<feOffset dy="4"/>
<feGaussianBlur stdDeviation="25"/>
<feComposite in2="hardAlpha" operator="out"/>
<feColorMatrix type="matrix" values="0 0 0 0 0 0 0 0 0 0 0 0 0 0 0 0 0 0 0.5 0"/>
<feBlend mode="normal" in2="BackgroundImageFix" result="effect1_dropShadow_151_58"/>
<feBlend mode="normal" in="SourceGraphic" in2="effect1_dropShadow_151_58" result="shape"/>
</filter>
<filter id="filter2_d_151_58" x="0" y="168.92" width="165.571" height="130.754" filterUnits="userSpaceOnUse" color-interpolation-filters="sRGB">
<feFlood flood-opacity="0" result="BackgroundImageFix"/>
<feColorMatrix in="SourceAlpha" type="matrix" values="0 0 0 0 0 0 0 0 0 0 0 0 0 0 0 0 0 0 127 0" result="hardAlpha"/>
<feOffset dy="4"/>
<feGaussianBlur stdDeviation="25"/>
<feComposite in2="hardAlpha" operator="out"/>
<feColorMatrix type="matrix" values="0 0 0 0 0 0 0 0 0 0 0 0 0 0 0 0 0 0 0.5 0"/>
<feBlend mode="normal" in2="BackgroundImageFix" result="effect1_dropShadow_151_58"/>
<feBlend mode="normal" in="SourceGraphic" in2="effect1_dropShadow_151_58" result="shape"/>
</filter>
<filter id="filter3_f_151_58" x="4.09863" y="0.385742" width="567.198" height="319.124" filterUnits="userSpaceOnUse" color-interpolation-filters="sRGB">
<feFlood flood-opacity="0" result="BackgroundImageFix"/>
<feBlend mode="normal" in="SourceGraphic" in2="BackgroundImageFix" result="shape"/>
<feGaussianBlur stdDeviation="25" result="effect1_foregroundBlur_151_58"/>
</filter>
<filter id="filter4_i_151_58" x="100.049" y="161.862" width="393.771" height="539.138" filterUnits="userSpaceOnUse" color-interpolation-filters="sRGB">
<feFlood flood-opacity="0" result="BackgroundImageFix"/>
<feBlend mode="normal" in="SourceGraphic" in2="BackgroundImageFix" result="shape"/>
<feColorMatrix in="SourceAlpha" type="matrix" values="0 0 0 0 0 0 0 0 0 0 0 0 0 0 0 0 0 0 127 0" result="hardAlpha"/>
<feOffset dy="4"/>
<feGaussianBlur stdDeviation="2"/>
<feComposite in2="hardAlpha" operator="arithmetic" k2="-1" k3="1"/>
<feColorMatrix type="matrix" values="0 0 0 0 0 0 0 0 0 0 0 0 0 0 0 0 0 0 0.25 0"/>
<feBlend mode="normal" in2="shape" result="effect1_innerShadow_151_58"/>
</filter>
<clipPath id="clip0_151_58">
<rect width="32.7858" height="32.0346" fill="white" transform="translate(509.822 395.715)"/>
</clipPath>
<clipPath id="clip1_151_58">
<rect width="32.7858" height="15.3771" fill="white" transform="translate(66.3936 222.609)"/>
</clipPath>
</defs>
</svg>
